<svg xmlns="http://www.w3.org/2000/svg" version="1.1" xmlns:xlink="http://www.w3.org/1999/xlink" xmlns:svgjs="http://svgjs.dev/svgjs" width="128" height="128" viewBox="0 0 128 128"><g transform="matrix(0.8046875,0,0,0.8046875,12.760752631578946,22.78141296098817)"><svg viewBox="0 0 95 76" data-background-color="#c8c8c8" preserveAspectRatio="xMidYMid meet" height="102" width="128" xmlns="http://www.w3.org/2000/svg" xmlns:xlink="http://www.w3.org/1999/xlink"><g id="tight-bounds" transform="matrix(1,0,0,1,-0.24049999999999727,0.16623022230221807)"><svg viewBox="0 0 95.481 75.66753955539555" height="75.66753955539555" width="95.481"><g><svg viewBox="0 0 95.481 75.66753955539555" height="75.66753955539555" width="95.481"><g><svg viewBox="0 0 95.481 75.66753955539555" height="75.66753955539555" width="95.481"><g id="textblocktransform"><svg viewBox="0 0 95.481 75.66753955539555" height="75.66753955539555" width="95.481" id="textblock"><g><svg viewBox="0 0 95.481 75.66753955539555" height="75.66753955539555" width="95.481"><g><svg viewBox="0 0 95.481 75.66753955539555" height="75.66753955539555" width="95.481"><g><svg version="1.1" xmlns="http://www.w3.org/2000/svg" xmlns:xlink="http://www.w3.org/1999/xlink" x="0" y="0" viewBox="0.062 10.717 99.99900000000001 79.248" enable-background="new 0.062 10.717 100 79.248" xml:space="preserve" width="95.481" height="75.66753955539555" class="icon-icon-0" data-fill-palette-color="accent" id="icon-0"><path d="M85.852 17.327c1.549-0.289 2.724-1.641 2.724-3.274 0-1.844-1.494-3.336-3.338-3.336h-70.35c-1.843 0-3.336 1.492-3.336 3.336 0 1.632 1.173 2.985 2.722 3.274L0.062 44.758v5.338c0 2.396 2.54 4.338 5.671 4.338 1.051 0 2.033-0.224 2.877-0.605v36.136h82.902V53.829c0.846 0.383 1.825 0.605 2.879 0.605 3.131 0 5.67-1.941 5.67-4.338v-5.338L85.852 17.327zM16.839 54.433c-2.986 0-5.407-1.94-5.407-4.337v-0.5h-0.027v-4.837l10.716-27.369h8.561l-8.435 27.369v5.338c0 0.001 0 0.002 0 0.002C22.245 52.492 19.825 54.433 16.839 54.433zM38.999 54.433c-2.987 0-5.408-1.94-5.408-4.337v-0.5l0 0v-4.837l4.479-27.369h8.534l-2.197 27.369v4.837 0.5C44.405 52.491 41.984 54.433 38.999 54.433zM61.154 54.433c-2.985 0-5.406-1.94-5.406-4.337v-0.5-4.837l-2.2-27.369h8.508l4.479 27.369v5.338c0 0.073 0.012 0.146 0.016 0.216C66.407 52.606 64.049 54.433 61.154 54.433zM88.692 50.096c0 2.396-2.421 4.337-5.407 4.337-2.985 0-5.406-1.94-5.406-4.337v-0.5-4.837l-8.438-27.369h8.562l10.716 27.369v4.837h-0.026V50.096L88.692 50.096z" fill="#1f1e1e" data-fill-palette-color="accent"></path></svg></g></svg></g></svg></g></svg></g></svg></g></svg></g><defs></defs></svg><rect width="95.481" height="75.66753955539555" fill="none" stroke="none" visibility="hidden"></rect></g></svg></g></svg>